<svg width="318" height="54" viewBox="0 0 318 54" fill="none" xmlns="http://www.w3.org/2000/svg">
<path d="M33.6285 27.697C32.5851 26.871 32.0634 25.7624 32.0634 24.3711C32.0634 23.3277 32.4112 22.393 33.1068 21.567C34.8458 19.5671 35.7806 17.0455 35.911 14.0021C35.3023 7.91553 31.1287 3.85054 23.39 1.80717C20.564 1.06808 17.6294 0.698537 14.5861 0.698537H4.54317C3.32585 0.698537 2.28243 1.13329 1.41291 2.00281C0.543393 2.87233 0.108635 3.91575 0.108635 5.13308V48.5002C0.108635 49.7176 0.543393 50.761 1.41291 51.6305C2.28243 52.5 3.32585 52.9348 4.54317 52.9348H18.3685C20.3684 52.9348 22.7378 52.8696 25.4768 52.7391C26.2594 52.6957 27.2593 52.5 28.4766 52.1522C30.2591 51.6305 31.9764 50.674 33.6285 49.2828C37.0196 46.4134 38.6717 42.631 38.5848 37.9356C38.5848 36.8922 38.3674 35.6749 37.9326 34.2836C37.1066 31.5447 35.6719 29.3491 33.6285 27.697ZM26.2594 40.7398C25.4768 40.7398 24.2377 40.305 22.5422 39.4355C20.8901 38.566 19.8684 38.1313 19.4771 38.1313H18.9554C18.9119 38.0878 18.8685 38.066 18.825 38.066H18.4989C18.9337 39.4138 19.4989 40.5007 20.1945 41.3267L21.4988 42.8266C22.3683 43.8266 22.8465 44.5005 22.9335 44.8483C22.9769 44.9352 22.9987 45.0657 22.9987 45.2396V45.9569C22.9987 47.9133 21.8248 48.8698 19.4771 48.8263C17.2599 48.8263 16.173 47.8481 16.2164 45.8917C16.2599 45.7613 16.3251 45.4352 16.4121 44.9135L16.8686 42.5658C16.8686 42.5223 16.8903 42.4354 16.9338 42.3049V41.0659C16.9338 40.5007 16.8468 39.7833 16.6729 38.9138V38.5225C16.1947 38.9573 15.4774 39.6746 14.5209 40.6746C13.5644 42.5006 12.6079 43.8701 11.6515 44.7831C11.0863 45.1743 10.4776 45.37 9.82549 45.37C8.95597 45.37 8.19515 45.0004 7.54301 44.2614C6.89087 43.5223 6.5648 42.718 6.5648 41.8484C6.5648 39.8486 7.97777 38.6964 10.8037 38.3921C12.5862 38.2182 13.8905 37.8704 14.7165 37.3487L15.4991 36.9574C14.4557 36.2183 13.2166 35.6749 11.7819 35.3271C11.5645 35.3271 11.3471 35.2836 11.1298 35.1966C8.17341 34.4575 6.71697 33.3272 6.76044 31.8055C6.76044 30.8925 7.12999 30.0882 7.86908 29.3926C8.60817 28.6535 9.43421 28.284 10.3472 28.284C11.521 28.284 12.3906 28.8274 12.9558 29.9143C14.347 32.5229 15.173 33.9576 15.4339 34.2184L16.7382 35.5227C16.9121 34.914 17.0642 34.4141 17.1946 34.0228V33.5663C17.1946 33.262 17.1946 33.1098 17.1946 33.1098L16.999 28.61C16.9121 26.4797 17.912 25.4146 19.9988 25.4146C21.0423 25.4146 21.89 25.7406 22.5422 26.3928C23.2378 27.0014 23.5856 27.8275 23.5856 28.8709C23.6291 28.9578 23.6291 29.0883 23.5856 29.2622C23.5421 29.3926 23.5204 29.523 23.5204 29.6535C22.3031 31.0012 20.6292 33.1533 18.4989 36.1096C19.7597 36.1096 20.7162 36.0009 21.3683 35.7836C23.1943 34.8706 24.716 34.3271 25.9333 34.1532H26.3246C28.3245 34.1532 29.3027 35.2618 29.2592 37.4791C29.2592 38.3052 28.9549 39.066 28.3462 39.7616C27.781 40.4137 27.0854 40.7398 26.2594 40.7398ZM72.6248 33.3054C72.5814 33.262 72.5379 33.1967 72.4944 33.1098L71.7119 31.0882C76.2333 27.4797 78.4941 23.0669 78.4941 17.8498C78.4941 12.3283 76.6246 8.02422 72.8857 4.93743C69.4511 2.06803 64.9079 0.633324 59.256 0.633324H39.7571V32.3924C39.7571 32.6098 39.7571 32.8272 39.7571 33.0446C39.7136 33.262 39.6919 33.3706 39.6919 33.3706V45.1743C39.6919 47.2612 40.431 49.0437 41.9091 50.5219C43.4308 52.0001 45.2351 52.7391 47.3219 52.7391C49.4522 52.7391 51.2565 52.0218 52.7346 50.5871C54.2563 49.1089 55.0171 47.3047 55.0171 45.1743V30.5012L58.4735 39.1095C58.4735 39.1964 58.4952 39.2834 58.5387 39.3703L59.8429 42.5006L61.6689 47.0655H61.7341L62.5819 49.0872C63.6253 51.6088 65.6904 52.8696 68.7772 52.8696C71.7336 52.8696 74.0595 51.674 75.7551 49.2828C76.6681 48.022 77.1246 46.696 77.1246 45.3048C77.1246 44.5222 76.9724 43.7614 76.6681 43.0223L72.6248 33.3054ZM66.1687 20.3931C65.3861 20.3931 64.1905 19.9801 62.5819 19.154C60.9733 18.2845 59.9734 17.8498 59.5821 17.8498H59.0604C59.0169 17.8063 58.9734 17.7846 58.9299 17.7846H58.6039C58.9952 18.9584 59.5603 20.0018 60.2994 20.9148C60.2994 20.9583 60.7125 21.4583 61.5385 22.4147C62.3645 23.3712 62.821 24.0233 62.908 24.3711C62.9515 24.4581 62.9732 24.5885 62.9732 24.7624V25.4146C62.9732 27.3275 61.8428 28.2622 59.5821 28.2188C57.4518 28.2188 56.3866 27.2623 56.3866 25.3494C56.4301 25.2624 56.4953 24.9581 56.5823 24.4364L56.9735 22.1539C57.017 22.0669 57.0605 21.9582 57.104 21.8278V20.654C57.104 20.1322 57.017 19.4366 56.8431 18.5671V18.1758C56.3649 18.6106 55.6475 19.3279 54.6911 20.3279C53.8215 22.0669 52.9085 23.3929 51.9521 24.3059C51.3869 24.6972 50.7782 24.8929 50.1261 24.8929C49.3 24.8929 48.561 24.5233 47.9088 23.7842C47.3002 23.0451 46.9958 22.2626 46.9958 21.4365C46.9958 19.5236 48.3653 18.415 51.1043 18.1106C52.8868 17.9367 54.1693 17.5889 54.9519 17.0672L55.6693 16.6107C54.6693 15.9586 53.4737 15.4586 52.0825 15.1108C51.8651 15.1108 51.6477 15.0456 51.4304 14.9151C48.6044 14.2195 47.1915 13.1109 47.1915 11.5892C47.1915 10.7197 47.5393 9.93716 48.2349 9.24155C48.974 8.54593 49.7783 8.19812 50.6478 8.19812C51.8216 8.19812 52.6912 8.74157 53.2563 9.82847C54.6476 12.437 55.4301 13.8282 55.604 14.0021L56.8431 15.2412C57.0605 14.6325 57.2127 14.1543 57.2996 13.8065L57.3648 13.35C57.3648 13.1761 57.3431 13.0239 57.2996 12.8935L57.1692 8.52419C57.1257 6.43735 58.1039 5.39393 60.1038 5.39393C61.1037 5.39393 61.9298 5.72 62.5819 6.37214C63.2341 6.9808 63.5601 7.7851 63.5601 8.78505C63.6036 8.91548 63.6036 9.0459 63.5601 9.17633C63.5167 9.30676 63.4949 9.43719 63.4949 9.56761C62.3211 10.8719 60.6907 12.9587 58.6039 15.8281C59.9082 15.8716 60.8429 15.7629 61.4081 15.5021C63.321 14.6326 64.7992 14.1108 65.8426 13.9369H66.2991C68.212 13.9369 69.1468 15.0021 69.1033 17.1324C69.1033 18.0019 68.8207 18.7628 68.2555 19.4149C67.6903 20.067 66.9947 20.3931 66.1687 20.3931ZM109.313 20.7844C110.53 20.7844 111.573 21.2191 112.443 22.0887C113.312 22.9582 113.747 24.0016 113.747 25.2189V28.0231C113.747 29.2404 113.312 30.2839 112.443 31.1534C111.573 32.0229 110.53 32.4577 109.313 32.4577H108.139C102.139 32.4577 98.3568 32.5229 96.7917 32.6533L96.2047 33.1098C95.6395 33.5446 95.3569 34.2402 95.3569 35.1966C95.3569 36.6313 95.9439 37.4791 97.1177 37.74C97.596 37.8269 98.4872 37.8704 99.7915 37.8704H110.291C111.508 37.8704 112.552 38.3052 113.421 39.1747C114.291 40.0442 114.725 41.0876 114.725 42.3049V48.3046C114.725 49.5219 114.291 50.5871 113.421 51.5001C112.552 52.3696 111.508 52.8044 110.291 52.8044H107.095C101.226 52.8044 96.7482 52.587 93.6614 52.1522C89.9225 51.6305 86.9878 50.4567 84.8575 48.6307C81.8142 46.0221 80.2926 42.0658 80.2926 36.7618V20.7844C80.2926 12.9153 81.7055 7.56772 84.5315 4.74179C87.3574 1.91586 91.4441 0.502894 96.7917 0.502894H110.291C111.508 0.502894 112.552 0.937653 113.421 1.80717C114.291 2.67669 114.725 3.72011 114.725 4.93743V11.1327C114.725 12.3935 114.269 13.3718 113.356 14.0674C112.486 14.763 111.4 15.1108 110.095 15.1108H109.182C102.922 15.1108 100.683 15.089 102.465 15.0456C99.1611 15.1325 97.3786 15.4151 97.1177 15.8934C96.6395 16.2412 96.3786 17.002 96.3352 18.1758C96.3352 19.3062 96.8134 20.067 97.7699 20.4583C98.2916 20.6757 99.2698 20.7844 100.704 20.7844H109.313ZM141.299 20.2627C145.82 24.0016 148.081 28.61 148.081 34.088C148.081 39.6094 146.516 44.1309 143.385 47.6525C140.125 51.261 135.755 53.0652 130.277 53.0652C126.93 53.0652 123.865 52.1305 121.082 50.261C117.604 47.9568 115.865 44.5439 115.865 40.0225C115.865 37.9791 116.278 36.1314 117.104 34.4793C118.104 32.4359 119.539 31.4142 121.408 31.4142C122.973 31.4142 124.408 32.1098 125.712 33.5011C125.93 33.7185 126.843 34.6314 128.451 36.2401C129.277 37.0661 129.995 37.4791 130.603 37.4791C131.56 37.4791 132.038 37.0444 132.038 36.1748C132.038 35.4792 131.451 34.4793 130.277 33.175C128.321 32.1751 126.408 29.7839 124.539 26.0015C122.8 22.393 121.93 19.3932 121.93 17.002C121.93 12.6544 123.234 8.91548 125.843 5.78521C128.625 2.48105 132.147 0.828967 136.408 0.828967C139.233 0.828967 142.103 1.56806 145.016 3.04623C146.668 3.87228 147.798 4.69832 148.407 5.52436C149.32 6.78516 149.928 8.89374 150.233 11.8501C150.363 13.2413 149.994 14.6543 149.124 16.089C148.298 17.5237 147.19 18.241 145.798 18.241C145.45 18.241 145.081 18.1758 144.69 18.0454C144.211 17.3498 143.538 16.6977 142.668 16.089C142.32 15.7412 141.885 15.5673 141.364 15.5673C140.972 15.5673 140.538 15.676 140.059 15.8934C139.407 16.4151 139.081 17.0889 139.081 17.915C139.081 18.2628 139.146 18.6323 139.277 19.0236L141.299 20.2627ZM183.514 15.7629C182.296 15.7629 181.253 16.1977 180.384 17.0672C179.514 17.9367 179.079 18.9801 179.079 20.1975V48.435C179.079 49.6958 178.644 50.761 177.775 51.6305C176.949 52.5 175.905 52.9348 174.645 52.9348H167.928C166.667 52.9348 165.602 52.5 164.732 51.6305C163.906 50.761 163.493 49.6958 163.493 48.435V20.1975C163.493 18.9801 163.058 17.9367 162.189 17.0672C161.319 16.1977 160.276 15.7629 159.059 15.7629H155.994C154.733 15.7629 153.668 15.3282 152.798 14.4586C151.929 13.5891 151.494 12.524 151.494 11.2632V5.06786C151.494 3.80706 151.929 2.76364 152.798 1.9376C153.668 1.06808 154.733 0.633324 155.994 0.633324H186.514C187.731 0.633324 188.774 1.06808 189.644 1.9376C190.513 2.80712 190.948 3.85054 190.948 5.06786V11.2632C190.948 12.524 190.513 13.5891 189.644 14.4586C188.818 15.3282 187.774 15.7629 186.514 15.7629H183.514ZM215.721 0.894179C208.243 0.894179 201.917 3.3723 196.744 8.32855C191.613 13.2848 189.048 19.5018 189.048 26.9797C189.048 34.3271 191.57 40.5224 196.613 45.5656C201.7 50.6088 207.917 53.1304 215.264 53.1304C222.655 53.1304 228.872 50.6306 233.915 45.6308C238.959 40.5876 241.48 34.3706 241.48 26.9797C241.48 19.7627 238.98 13.6109 233.981 8.52419C228.981 3.43752 222.894 0.894179 215.721 0.894179ZM225.307 30.5012C224.351 30.5012 222.938 30.0013 221.068 29.0013C219.242 28.0014 218.068 27.5014 217.547 27.5014H216.96C216.916 27.4579 216.873 27.4362 216.829 27.4362H216.438C217.003 29.0448 217.655 30.2839 218.394 31.1534L219.894 32.8489C220.851 33.9793 221.373 34.7619 221.46 35.1966C221.546 35.2836 221.59 35.414 221.59 35.5879V36.3705C221.59 38.6312 220.264 39.7399 217.612 39.6964C215.047 39.6964 213.786 38.5878 213.83 36.3705C213.873 36.1096 213.938 35.7183 214.025 35.1966L214.547 32.5881C214.547 32.4577 214.59 32.3272 214.677 32.1968V30.8273C214.677 30.2186 214.569 29.3926 214.351 28.3492V27.8927C213.786 28.4144 212.96 29.2404 211.873 30.3708C210.83 32.4577 209.765 34.0445 208.678 35.1314C207.982 35.5662 207.243 35.7836 206.46 35.7836C205.46 35.7836 204.591 35.3705 203.852 34.5445C203.156 33.675 202.808 32.7402 202.808 31.7403C202.808 29.3926 204.417 28.0666 207.634 27.7623C209.547 27.5884 211.047 27.1971 212.134 26.5884L212.982 26.1319C211.808 25.3059 210.417 24.6755 208.808 24.2407C208.504 24.2407 208.243 24.1972 208.025 24.1103C204.678 23.2842 203.026 21.98 203.069 20.1975C203.069 19.154 203.482 18.2193 204.308 17.3933C205.134 16.5672 206.069 16.1542 207.112 16.1542C208.417 16.1977 209.417 16.8498 210.112 18.1106C211.677 21.067 212.612 22.6973 212.917 23.0017L214.416 24.5016C214.634 23.806 214.808 23.219 214.938 22.7408V22.2191C214.938 21.8713 214.938 21.6974 214.938 21.6974L214.743 16.6107C214.656 14.1326 215.808 12.8935 218.199 12.8935C219.329 12.8935 220.286 13.2848 221.068 14.0674C221.894 14.8065 222.307 15.7412 222.307 16.8716V17.3281C222.22 17.502 222.177 17.6541 222.177 17.7846C220.786 19.3062 218.873 21.7626 216.438 25.1537C217.873 25.1537 218.981 25.0233 219.764 24.7624C221.807 23.7625 223.525 23.1321 224.916 22.8712H225.438C227.698 22.8712 228.807 24.1538 228.763 26.7188C228.763 27.7188 228.416 28.61 227.72 29.3926C227.068 30.1317 226.264 30.5012 225.307 30.5012ZM275.651 33.3054C275.608 33.262 275.564 33.1967 275.521 33.1098L274.738 31.0882C279.26 27.4797 281.52 23.0669 281.52 17.8498C281.52 12.3283 279.651 8.02422 275.912 4.93743C272.477 2.06803 267.934 0.633324 262.282 0.633324H242.783V32.3924C242.783 32.6098 242.783 32.8272 242.783 33.0446C242.74 33.262 242.718 33.3706 242.718 33.3706V45.1743C242.718 47.2612 243.457 49.0437 244.935 50.5219C246.457 52.0001 248.261 52.7391 250.348 52.7391C252.479 52.7391 254.283 52.0218 255.761 50.5871C257.283 49.1089 258.043 47.3047 258.043 45.1743V30.5012L261.5 39.1095C261.5 39.1964 261.522 39.2834 261.565 39.3703L262.869 42.5006L264.695 47.0655H264.76L265.608 49.0872C266.652 51.6088 268.717 52.8696 271.804 52.8696C274.76 52.8696 277.086 51.674 278.781 49.2828C279.694 48.022 280.151 46.696 280.151 45.3048C280.151 44.5222 279.999 43.7614 279.694 43.0223L275.651 33.3054ZM269.195 20.3931C268.412 20.3931 267.217 19.9801 265.608 19.154C264 18.2845 263 17.8498 262.608 17.8498H262.087C262.043 17.8063 262 17.7846 261.956 17.7846H261.63C262.021 18.9584 262.587 20.0018 263.326 20.9148C263.326 20.9583 263.739 21.4583 264.565 22.4147C265.391 23.3712 265.847 24.0233 265.934 24.3711C265.978 24.4581 266 24.5885 266 24.7624V25.4146C266 27.3275 264.869 28.2622 262.608 28.2188C260.478 28.2188 259.413 27.2623 259.413 25.3494C259.456 25.2624 259.522 24.9581 259.609 24.4364L260 22.1539C260.043 22.0669 260.087 21.9582 260.13 21.8278V20.654C260.13 20.1322 260.043 19.4366 259.869 18.5671V18.1758C259.391 18.6106 258.674 19.3279 257.717 20.3279C256.848 22.0669 255.935 23.3929 254.978 24.3059C254.413 24.6972 253.805 24.8929 253.152 24.8929C252.326 24.8929 251.587 24.5233 250.935 23.7842C250.326 23.0451 250.022 22.2626 250.022 21.4365C250.022 19.5236 251.392 18.415 254.131 18.1106C255.913 17.9367 257.196 17.5889 257.978 17.0672L258.696 16.6107C257.696 15.9586 256.5 15.4586 255.109 15.1108C254.891 15.1108 254.674 15.0456 254.457 14.9151C251.631 14.2195 250.218 13.1109 250.218 11.5892C250.218 10.7197 250.566 9.93716 251.261 9.24155C252 8.54593 252.805 8.19812 253.674 8.19812C254.848 8.19812 255.717 8.74157 256.283 9.82847C257.674 12.437 258.456 13.8282 258.63 14.0021L259.869 15.2412C260.087 14.6325 260.239 14.1543 260.326 13.8065L260.391 13.35C260.391 13.1761 260.369 13.0239 260.326 12.8935L260.196 8.52419C260.152 6.43735 261.13 5.39393 263.13 5.39393C264.13 5.39393 264.956 5.72 265.608 6.37214C266.26 6.9808 266.586 7.7851 266.586 8.78505C266.63 8.91548 266.63 9.0459 266.586 9.17633C266.543 9.30676 266.521 9.43719 266.521 9.56761C265.347 10.8719 263.717 12.9587 261.63 15.8281C262.934 15.8716 263.869 15.7629 264.434 15.5021C266.347 14.6326 267.826 14.1108 268.869 13.9369H269.325C271.238 13.9369 272.173 15.0021 272.13 17.1324C272.13 18.0019 271.847 18.7628 271.282 19.4149C270.717 20.067 270.021 20.3931 269.195 20.3931ZM312.339 20.7844C313.556 20.7844 314.6 21.2191 315.469 22.0887C316.339 22.9582 316.774 24.0016 316.774 25.2189V28.0231C316.774 29.2404 316.339 30.2839 315.469 31.1534C314.6 32.0229 313.556 32.4577 312.339 32.4577H311.165C305.166 32.4577 301.383 32.5229 299.818 32.6533L299.231 33.1098C298.666 33.5446 298.383 34.2402 298.383 35.1966C298.383 36.6313 298.97 37.4791 300.144 37.74C300.622 37.8269 301.514 37.8704 302.818 37.8704H313.317C314.535 37.8704 315.578 38.3052 316.447 39.1747C317.317 40.0442 317.752 41.0876 317.752 42.3049V48.3046C317.752 49.5219 317.317 50.5871 316.447 51.5001C315.578 52.3696 314.535 52.8044 313.317 52.8044H310.122C304.253 52.8044 299.774 52.587 296.688 52.1522C292.949 51.6305 290.014 50.4567 287.884 48.6307C284.841 46.0221 283.319 42.0658 283.319 36.7618V20.7844C283.319 12.9153 284.732 7.56772 287.558 4.74179C290.384 1.91586 294.47 0.502894 299.818 0.502894H313.317C314.535 0.502894 315.578 0.937653 316.447 1.80717C317.317 2.67669 317.752 3.72011 317.752 4.93743V11.1327C317.752 12.3935 317.295 13.3718 316.382 14.0674C315.513 14.763 314.426 15.1108 313.122 15.1108H312.209C305.948 15.1108 303.709 15.089 305.492 15.0456C302.187 15.1325 300.405 15.4151 300.144 15.8934C299.666 16.2412 299.405 17.002 299.361 18.1758C299.361 19.3062 299.84 20.067 300.796 20.4583C301.318 20.6757 302.296 20.7844 303.731 20.7844H312.339Z" fill="black"/>
</svg>
