<svg width="19" height="19" viewBox="0 0 19 19" fill="none" xmlns="http://www.w3.org/2000/svg">
<path d="M12.8919 1.64237e-07C11.9383 -0.000218521 10.9979 0.222939 10.1461 0.65159C9.29426 1.08024 8.55469 1.70247 7.98664 2.4684C7.41858 3.23434 7.03784 4.12269 6.87493 5.06226C6.71201 6.00184 6.77145 6.96651 7.04847 7.87898L0 14.9275V18.9986H4.07113L11.1196 11.9501C11.9595 12.2051 12.8446 12.2759 13.7144 12.1579C14.5842 12.0399 15.4184 11.7357 16.16 11.2662C16.9016 10.7966 17.5333 10.1727 18.012 9.43694C18.4907 8.70117 18.8052 7.87085 18.9339 7.00256C19.0627 6.13427 19.0028 5.24843 18.7582 4.40539C18.5137 3.56236 18.0903 2.78196 17.5168 2.11737C16.9434 1.45277 16.2334 0.919614 15.4353 0.554223C14.6372 0.188832 13.7697 -0.000203403 12.8919 1.64237e-07ZM12.8919 10.8563C12.4247 10.8561 11.9602 10.787 11.5131 10.6514L10.7349 10.4153L10.1602 10.99L8.0018 13.1484L7.06612 12.2134L6.10669 13.1728L7.04237 14.1085L5.96623 15.1846L5.03055 14.2489L4.07113 15.2084L5.0068 16.144L3.50931 17.6415H1.35704V15.4893L8.0079 8.83841L8.58329 8.2637L8.34716 7.48544C8.05715 6.5294 8.07599 5.50625 8.401 4.56154C8.72602 3.61682 9.34065 2.79865 10.1575 2.22339C10.9743 1.64814 11.9517 1.34511 12.9507 1.3574C13.9497 1.36969 14.9194 1.69668 15.7218 2.29185C16.5242 2.88702 17.1186 3.72007 17.4202 4.6725C17.7219 5.62493 17.7156 6.64823 17.4021 7.59684C17.0887 8.54546 16.4841 9.37108 15.6743 9.95627C14.8646 10.5415 13.891 10.8564 12.8919 10.8563Z" fill="#C4C4C4" fill-opacity="0.65"/>
<path d="M13.5704 6.78513C14.3199 6.78513 14.9275 6.17756 14.9275 5.42809C14.9275 4.67861 14.3199 4.07104 13.5704 4.07104C12.8209 4.07104 12.2134 4.67861 12.2134 5.42809C12.2134 6.17756 12.8209 6.78513 13.5704 6.78513Z" fill="#C4C4C4" fill-opacity="0.65"/>
</svg>
